#!OML:ASF F:\VICON\USERDATA\INSTALL\rory3\rory3.ASF
:FULLY-SPECIFIED
:DEGREES
401
root 1.03734 17.9464 32.1368 -3.30159 -2.77104 0.884199
lowerback 8.3397 0.234624 -2.23571
upperback 1.5589 0.143695 0.862119
thorax -3.06826 0.094557 2.13422
lowerneck -14.7364 -2.38461 -1.45425
upperneck 15.9601 -3.09118 0.844579
head 7.36577 -1.48906 0.187009
rclavicle 1.16786e-015 8.94531e-015
rhumerus -31.526 -19.2897 -78.5576
rradius 28.1689
rwrist 4.1816
rhand -14.4888 19.273
rfingers 7.12502
rthumb 11.6577 -10.3827
lclavicle 1.16786e-015 8.94531e-015
lhumerus -31.2555 -3.24009 82.2232
lradius 30.3082
lwrist 1.29618
lhand -21.7918 30.2713
lfingers 7.12502
lthumb 4.60978 60.2011
rfemur -27.1191 -2.20007 21.0629
rtibia 59.2635
rfoot -12.3949 -5.80078
rtoes -4.7646
lfemur -6.31383 -4.00494 -26.5651
ltibia 33.1142
lfoot -19.398 2.56167
ltoes -0.175813
402
root 1.03264 17.9495 32.2845 -3.32175 -2.62106 0.824817
lowerback 8.48331 0.118285 -2.22462
upperback 1.5422 -0.0112414 0.914551
thorax -3.15711 0.0189643 2.19974
lowerneck -15.0166 -2.37151 -1.44335
upperneck 16.3478 -3.07923 0.856819
head 7.54188 -1.47914 0.184782
rclavicle -9.61621e-015 -4.17448e-015
rhumerus -31.6636 -19.1134 -78.6179
rradius 28.3506
rwrist 4.04923
rhand -14.3274 19.4727
rfingers 7.12502
rthumb 11.8134 -10.1741
lclavicle -9.61621e-015 -4.17448e-015
lhumerus -30.9517 -3.58006 82.1035
lradius 30.7603
lwrist 1.65234
lhand -22.259 29.0062
lfingers 7.12502
lthumb 4.15863 58.9454
rfemur -27.4632 -2.10858 21.1558
rtibia 57.2042
rfoot -11.7383 -6.22438
rtoes -2.44945
lfemur -5.60959 -4.05792 -26.5744
ltibia 32.8723
lfoot -19.8361 2.87878
ltoes -1.65328
403
root 1.02171 17.9546 32.4171 -3.16882 -2.41571 0.648744
lowerback 8.49377 0.0190845 -2.17537
upperback 1.60234 -0.135143 1.0149
thorax -3.0937 -0.0442186 2.28955
lowerneck -15.3725 -2.41509 -1.40821
upperneck 16.484 -3.14385 0.857742
head 7.64928 -1.50541 0.167112
rclavicle -3.80176e-015 -1.2921e-014
rhumerus -31.5269 -19.0073 -78.7532
rradius 28.5345
rwrist 3.79367
rhand -14.5241 19.4187
rfingers 7.12502
rthumb 11.6237 -10.2389
lclavicle -3.80176e-015 -1.2921e-014
lhumerus -30.2601 -3.88905 82.0123
lradius 31.0282
lwrist 1.61099
lhand -22.6618 28.3041
lfingers 7.12502
lthumb 3.76972 58.2505
rfemur -27.9823 -2.11388 21.4258
rtibia 55.0737
rfoot -12.3434 -6.63503
rtoes -4.83713
lfemur -5.13531 -4.02261 -26.3723
ltibia 32.5199
lfoot -19.8814 2.74067
ltoes -1.73388
404
root 1.01934 17.9498 32.5476 -2.95237 -2.14178 0.650717
lowerback 8.46223 -0.127772 -2.2032
upperback 1.59579 -0.329587 1.09048
thorax -3.07143 -0.14059 2.40475
lowerneck -15.2555 -2.42116 -1.46878
upperneck 16.2075 -3.13763 0.867447
head 7.53879 -1.50669 0.184026
rclavicle -6.53505e-015 -1.07344e-014
rhumerus -31.5513 -18.4977 -78.8824
rradius 28.8971
rwrist 3.52921
rhand -14.7091 18.9415
rfingers 7.12502
rthumb 11.4453 -10.7261
lclavicle -6.53505e-015 -1.07344e-014
lhumerus -29.6505 -3.84115 81.9047
lradius 31.2194
lwrist 0.804948
lhand -22.9152 27.9254
lfingers 7.12502
lthumb 3.52504 57.876
rfemur -28.4946 -2.35136 21.4654
rtibia 52.9059
rfoot -12.8157 -7.011
rtoes -7.74707
lfemur -4.67354 -4.11269 -26.4169
ltibia 32.0784
lfoot -19.9378 2.68816
ltoes -1.57752
405
root 1.0224 17.9418 32.6935 -2.86618 -1.95367 1.22018
lowerback 8.45134 -0.203403 -2.68344
upperback 1.46623 -0.477955 0.961428
thorax -3.18804 -0.206823 2.5587
lowerneck -14.6787 -2.44236 -1.38372
upperneck 15.9119 -3.16749 0.741978
head 7.33787 -1.53139 0.134922
rclavicle -5.26779e-015 5.56597e-015
rhumerus -31.9392 -18.4679 -78.7233
rradius 28.99
rwrist 3.61849
rhand -14.7911 19.4433
rfingers 7.12502
rthumb 11.3662 -10.2286
lclavicle -5.26779e-015 5.56597e-015
lhumerus -29.4461 -4.07034 81.8195
lradius 31.415
lwrist 0.10479
lhand -22.903 27.6181
lfingers 7.12502
lthumb 3.53677 57.5685
rfemur -28.857 -2.43684 20.8013
rtibia 50.7152
rfoot -12.8237 -7.34148
rtoes -9.0037
lfemur -3.98114 -4.28716 -27.1814
ltibia 31.5846
lfoot -20.0725 2.98139
ltoes -2.54367
406
root 1.0212 17.9431 32.851 -2.91923 -2.01336 1.6506
lowerback 8.40826 -0.162417 -3.04065
upperback 1.44305 -0.457568 0.874409
thorax -3.18713 -0.193085 2.66734
lowerneck -14.2472 -2.50925 -1.51406
upperneck 15.6737 -3.24581 0.808518
head 7.1893 -1.57328 0.176638
rclavicle 3.47873e-016 -1.19271e-014
rhumerus -32.0893 -18.7797 -78.5026
rradius 28.7783
rwrist 3.74778
rhand -14.6255 19.8846
rfingers 7.12502
rthumb 11.526 -9.77853
lclavicle 3.47873e-016 -1.19271e-014
lhumerus -29.2028 -4.5292 81.8418
lradius 31.7714
lwrist 0.108981
lhand -22.8722 28.1814
lfingers 7.12502
lthumb 3.56648 58.1313
rfemur -28.968 -2.15317 20.3058
rtibia 48.4093
rfoot -12.6643 -7.79567
rtoes -9.51274
lfemur -3.04273 -4.39828 -27.814
ltibia 31.0217
lfoot -20.12 3.51605
ltoes -3.36238
407
root 1.0143 17.9498 33.0008 -2.87857 -2.1572 1.44087
lowerback 8.21488 -0.118707 -2.81296
upperback 1.60133 -0.369662 0.959451
thorax -2.92241 -0.157935 2.61477
lowerneck -14.2497 -2.52051 -1.58751
upperneck 15.504 -3.25582 0.881184
head 7.13719 -1.57609 0.21225
rclavicle -6.65929e-015 -7.15625e-015
rhumerus -31.8514 -19.0163 -78.5047
rradius 28.6688
rwrist 3.71731
rhand -14.6145 19.3379
rfingers 7.12502
rthumb 11.5365 -10.3246
lclavicle -6.65929e-015 -7.15625e-015
lhumerus -28.4869 -5.06771 81.8265
lradius 32.1286
lwrist 0.51997
lhand -22.9533 28.7307
lfingers 7.12502
lthumb 3.48823 58.6819
rfemur -29.0986 -1.78279 20.5826
rtibia 45.9408
rfoot -12.2379 -8.45458
rtoes -10.1454
lfemur -2.24663 -4.45156 -27.6914
ltibia 30.451
lfoot -20.0819 3.95708
ltoes -3.70813
408
root 1.00756 17.9524 33.1455 -2.72215 -2.06894 1.27268
lowerback 8.12829 -0.194397 -2.65761
upperback 1.6096 -0.451792 1.04717
thorax -2.86082 -0.200949 2.62578
lowerneck -14.454 -2.47757 -1.52318
upperneck 15.6558 -3.19986 0.825559
head 7.21932 -1.54917 0.185965
rclavicle -3.8266e-015 3.97569e-016
rhumerus -31.8854 -18.6252 -78.6185
rradius 28.8161
rwrist 3.40317
rhand -14.5677 18.937
rfingers 7.12502
rthumb 11.5816 -10.723
lclavicle -3.8266e-015 3.97569e-016
lhumerus -27.8495 -5.42224 81.7344
lradius 32.2285
lwrist 0.704644
lhand -22.8842 28.5733
lfingers 7.12502
lthumb 3.55489 58.5234
rfemur -29.1995 -1.70509 20.7952
rtibia 43.3031
rfoot -11.639 -8.95461
rtoes -10.7896
lfemur -1.68544 -4.62707 -27.6042
ltibia 29.9723
lfoot -19.9982 4.24454
ltoes -4.18571
409
root 1.00239 17.9463 33.2843 -2.46903 -1.98333 1.27161
lowerback 8.15368 -0.280712 -2.66937
upperback 1.44799 -0.568357 1.07105
thorax -3.03444 -0.253834 2.6709
lowerneck -14.502 -2.40501 -1.44145
upperneck 15.8984 -3.12747 0.857201
head 7.30517 -1.50588 0.188389
rclavicle 1.01877e-015 -1.70955e-014
rhumerus -32.0918 -18.3 -78.6656
rradius 28.9328
rwrist 3.38679
rhand -14.4468 18.3895
rfingers 7.12502
rthumb 11.6983 -11.2639
lclavicle 1.01877e-015 -1.70955e-014
lhumerus -27.4017 -5.61605 81.5558
lradius 32.1995
lwrist 0.696398
lhand -23.1969 27.577
lfingers 7.12502
lthumb 3.25297 57.5319
rfemur -29.3321 -1.54387 20.7839
rtibia 40.5746
rfoot -11.0338 -9.30897
rtoes -11.0881
lfemur -1.26761 -4.71726 -27.6781
ltibia 29.5129
lfoot -19.9145 4.48603
ltoes -5.19161
410
root 0.991845 17.9474 33.4191 -2.21384 -1.98921 1.09813
lowerback 8.07642 -0.349754 -2.6004
upperback 1.41563 -0.648349 1.1963
thorax -3.01899 -0.293704 2.76965
lowerneck -14.5379 -2.325 -1.457
upperneck 15.8155 -3.02416 0.91748
head 7.28435 -1.45181 0.221532
rclavicle -7.62836e-015 7.15625e-015
rhumerus -32.0823 -18.3125 -78.6068
rradius 28.975
rwrist 3.77079
rhand -14.5433 18.4219
rfingers 7.12502
rthumb 11.6052 -11.2368
lclavicle -7.62836e-015 7.15625e-015
lhumerus -26.7389 -5.79485 81.4417
lradius 32.2119
lwrist 1.03186
lhand -23.7997 26.7983
lfingers 7.12502
lthumb 2.67084 56.7613
rfemur -29.5322 -1.07763 20.937
rtibia 37.8035
rfoot -10.4233 -9.80841
rtoes -11.1383
lfemur -0.734391 -4.75757 -27.4971
ltibia 28.9673
lfoot -19.9557 4.6383
ltoes -4.68579
411
root 0.984246 17.9507 33.5627 -2.06359 -1.75706 1.43406
lowerback 7.92721 -0.450947 -2.95962
upperback 1.46952 -0.810377 1.16108
thorax -2.86451 -0.374607 2.9496
lowerneck -14.8438 -2.34508 -1.4321
upperneck 16.0276 -3.04778 0.875986
head 7.40626 -1.46336 0.196595
rclavicle 3.72721e-016 -4.37326e-015
rhumerus -32.0399 -18.423 -78.5805
rradius 29.0952
rwrist 3.95265
rhand -14.7155 18.9724
rfingers 7.12502
rthumb 11.4392 -10.6955
lclavicle 3.72721e-016 -4.37326e-015
lhumerus -25.9731 -6.04596 81.358
lradius 32.2131
lwrist 1.29459
lhand -23.7326 27.1772
lfingers 7.12502
lthumb 2.73559 57.1394
rfemur -29.6229 -0.916758 20.4977
rtibia 35.0367
rfoot -10.0926 -10.358
rtoes -10.5232
lfemur -0.0208035 -4.91892 -27.8892
ltibia 28.3409
lfoot -20.0903 4.51183
ltoes -3.68968
